<svg xmlns="http://www.w3.org/2000/svg" viewBox="0 0 1100 1100">
  <defs fill="#f36817">
    <style>
      .cls-1 {
        fill: #f36817;
        stroke-width: 0px;
      }

      .cls-2 {
        fill: none;
        stroke: #f36817;
        stroke-miterlimit: 10;
        stroke-width: 40px;
      }
    </style>
  </defs>
  <g transform="matrix(1.001803, 0, 0, 1.001803, 29.963913, 29.963913)" style="">
    <circle class="cls-2" cx="519.1" cy="519.1" r="499.1" style="stroke: #f36817;" fill="#f36817"/>
    <g>
      <path class="cls-1" d="M564.08,317.67h-125.57v90.88c14.41,3.39,24.84,7.54,31.28,12.46v54.44c-36.5-12.88-74.52-19.32-114.08-19.32-28.52,0-56.12,4.78-82.8,14.32-35.58,12.63-53.52,30.65-53.82,54.06-.62,24.64,34.19,36.96,104.42,36.96,1.53,0,11.5-.46,29.9-1.38l27.6-1.38v42.32c-41.71,1.23-67.78,2.3-78.2,3.22-73.3,6.44-109.94,27.6-109.94,63.48,0,19.94,12.72,35.58,38.18,46.92,19.93,8.9,41.4,13.34,64.4,13.34,99.66,0,180.31-44.16,241.95-132.48v116.38c-52.75,33.43-115.15,50.14-187.21,50.14-78.81,0-146.89-18.26-204.23-54.8-27.91-17.8-41.86-38.21-41.86-61.24s9.81-41.9,29.44-58.48c11.96-10.13,31.74-21.79,59.34-34.99l-30.36-17.5c-18.1-10.44-27.14-24.4-27.14-41.9,0-38.06,28.67-65.38,86.02-81.96,43.54-12.58,92.46-18.87,146.73-18.87v-74.6H73.28v-55.2h490.8v55.2Z" fill="#f36817"/>
      <path class="cls-1" d="M965.19,317.67h-232.75v370.7c0,10.44,3.37,20.57,10.12,30.4,7.05,10.74,15.64,16.11,25.76,16.11,45.69,0,68.54-47.22,68.54-141.67l92.46,52.9c-35.27,78.2-89.85,117.14-163.75,116.84-42.94-.31-76.36-19.95-100.28-58.94-10.43-16.88-15.64-33.77-15.64-50.66v-335.67h-96.14v-55.2h96.14V108.38l82.8,57.33v96.77h232.75v55.2Z" fill="#f36817"/>
    </g>
  </g>
</svg>